<?xml version="1.0" encoding="utf-8"?>
<!-- Generator: Adobe Illustrator 21.1.0, SVG Export Plug-In . SVG Version: 6.00 Build 0)  -->
<svg version="1.1" xmlns="http://www.w3.org/2000/svg" xmlns:xlink="http://www.w3.org/1999/xlink" x="0px" y="0px"
	 viewBox="0 0 750 1334" style="enable-background:new 0 0 750 1334;" xml:space="preserve">
<g id="Layer_1">
</g>
<g id="Layer_2">
	<g>
		<path d="M135.8,966c-7.9-14.3,0-27.4,17-29.9c6.1-0.9,10.2-3.8,12.2-9.6c1.6-4.5,1.5-8.9,1.4-13.5c-0.2-27.8,18.6-48.1,47.4-52.5
			c16.4-2.5,32.4,0.2,48.6,1.1c6.6,0.3,13.3-0.8,14.5-6.7c2.6-12.6,8.1-24.7,7.8-38c-0.2-7.7-3.1-5.4-7.4-3.7
			c-17.1,6.9-34.7,11.8-53.6,11.8c-8.1,0-12.6-3.6-14.8-10.5c-1.3-4.1-1.6-8.4-2-12.6c-1.9-23.6,5.2-46.1,9.1-69
			c4-23.8,13.1-46.4,17.1-70.2c1.8-11.2,5.3-21.8,10.1-32.1c7.2-15.2,18.9-24.1,36.8-25.1c4.7-0.3,9.5-1,14.2-1.6
			c3.1-0.4,5.5-1.8,4.5-5.3c-1.6-5.9-3-11.9-5.2-17.6c-11.2-27.9-18.4-57.3-31.6-84.4c-6.7-13.8-8.1-28.9-13.6-42.9
			c-3.7-9.5-8.9-11.4-18.4-6c-13.9,7.9-27.8,15.9-41.6,24c-2,1.2-4.4,2.6-6.1,0.8c-4.8-5.1-11.8-8.6-14.3-15.4
			c-2.5-6.9-5.9-13.3-9.4-19.7c-4.4-8.1-2.7-15.7,5.1-21.1c3.4-2.3,7.1-4.5,11-5.9c14.4-5.3,27.2-13.7,41.1-19.8
			c6.6-2.9,8.4-7.2,5.8-13.6c-1.5-3.7-2.8-7.6-2.2-11.7c3.4,0,6.7,0,10.1,0c-0.3,4.3,0.1,8.6,1.7,12.7c8.6,22.3,17.3,44.5,25.1,67.1
			c10,28.8,21.9,57,31.7,85.9c7,20.9,15.6,41.2,22.2,62.2c0.7,2.3,1.8,5.5,4.7,4.8c5.6-1.2,12.4-1.4,15.9-6.3
			c3.1-4.4,6.9-6.8,11.7-8.4c7.7-2.5,8.9-7.7,6.2-16.5c-1,2.1-1.5,2.8-1.7,3.5c-1.5,4.5-3.5,9-9.6,8.3c-6.3-0.7-7.3-5.9-8.3-10.7
			c-0.4-1.8-0.5-3.7-0.4-5.6c0.5-10.4-1.8-20.2-6.3-29.6c-2.7-5.7-4.1-11.6-4.1-17.9c0-6.4,3.5-10.9,9.6-11.2c7-0.4,7.4-3.7,7.4-8.7
			c-0.1-11,3.1-21.1,9.4-30.3c15.6-23,51.1-26.6,71.7-7.4c11.4,10.7,16.1,23.4,16.1,38.3c0,3.4-0.4,6.4,4.5,8.3
			c13.4,5.1,15.1,9.6,10.8,23c-4,12.2-10.2,23.8-9.4,37.2c0.4,5.7,0.8,12.5-7.2,14.4c-7.8,1.9-8.2-5.3-11.6-10.6
			c-2,8-1.4,13.4,6.4,15.8c4.7,1.5,8.5,3.7,11.2,7.9c1.1,1.7,3.2,3.6,5,3.9c14.9,2.4,28.3,10,43.8,10.4
			c19.5,0.5,32.2,10.1,39.6,27.3c10.6,24.6,13.6,51.2,21.4,76.5c4.3,14.1,7.4,28.9,9.7,43.7c3.1,19.8,7.3,39.6,2.4,59.7
			c-2.5,10.1-5.5,12.1-16.3,12.2c-20.4,0.2-39.1-6-57.4-13.8c-2.2-0.9-4.6-3.1-6.8-0.6c-1.8,1.9-0.3,4.3,0.7,6c4,7,9.7,13,12.5,20.7
			c0.7,2.1,3.5,2.5,5.8,2.5c17,0.1,34,3.8,50.7-2.6c4.9-1.9,10.3-2.4,15.6-3.2c39.9-5.9,64.9,15.6,61.2,52.9
			c-1.1,11-5.4,21.2-10,31.3c-8.1,17.7-9.9,14,9,25.4c2.5,1.5,5.4,1.3,8,2c8.2,2.4,13.7,8.1,15.4,15.6"/>
	</g>
</g>
</svg>
