<?xml version="1.0" encoding="utf-8"?>
<!-- Generator: Adobe Illustrator 21.1.0, SVG Export Plug-In . SVG Version: 6.00 Build 0)  -->
<svg version="1.1" xmlns="http://www.w3.org/2000/svg" xmlns:xlink="http://www.w3.org/1999/xlink" x="0px" y="0px"
	 viewBox="0 0 750 1334" style="enable-background:new 0 0 750 1334;" xml:space="preserve">
<g id="Layer_1">
</g>
<g id="Layer_2">
	<g>
		<path d="M238.5,772.3c-4.7-8.9,0-17.1,10.1-18.6c3.6-0.6,6-2.4,7.3-6c0.9-2.8,0.9-5.6,0.9-8.4c-0.1-17.3,11-30,28.2-32.7
			c9.7-1.6,19.3,0.1,28.9,0.7c3.9,0.2,7.9-0.5,8.6-4.2c1.5-7.9,4.8-15.4,4.6-23.7c-0.1-4.8-1.9-3.4-4.4-2.3
			c-10.2,4.3-20.6,7.4-31.9,7.3c-4.8,0-7.5-2.2-8.8-6.5c-0.8-2.6-1-5.2-1.2-7.9c-1.1-14.7,3.1-28.7,5.4-43
			c2.4-14.8,7.8-28.9,10.1-43.7c1.1-7,3.1-13.6,6-20c4.3-9.5,11.3-15,21.8-15.7c2.8-0.2,5.6-0.6,8.4-1c1.9-0.3,3.3-1.1,2.7-3.3
			c-1-3.7-1.8-7.4-3.1-10.9c-6.6-17.4-10.9-35.7-18.8-52.6c-4-8.6-4.8-18-8.1-26.7c-2.2-5.9-5.3-7.1-10.9-3.7
			c-8.3,4.9-16.5,9.9-24.7,14.9c-1.2,0.7-2.6,1.6-3.6,0.5c-2.9-3.2-7-5.4-8.5-9.6c-1.5-4.3-3.5-8.3-5.6-12.3
			c-2.6-5.1-1.6-9.8,3-13.2c2-1.5,4.2-2.8,6.5-3.7c8.6-3.3,16.1-8.5,24.4-12.3c3.9-1.8,5-4.5,3.4-8.5c-0.9-2.3-1.7-4.7-1.3-7.3
			c2,0,4,0,6,0c-0.2,2.7,0.1,5.4,1,7.9c5.1,13.9,10.3,27.7,14.9,41.8c5.9,17.9,13,35.5,18.8,53.5c4.2,13,9.3,25.7,13.2,38.8
			c0.4,1.4,1.1,3.4,2.8,3c3.3-0.8,7.4-0.9,9.4-4c1.8-2.7,4.1-4.2,7-5.2c4.6-1.6,5.3-4.8,3.7-10.3c-0.6,1.3-0.9,1.7-1,2.2
			c-0.9,2.8-2.1,5.6-5.7,5.2c-3.7-0.5-4.3-3.7-4.9-6.7c-0.2-1.1-0.3-2.3-0.3-3.5c0.3-6.5-1.1-12.6-3.7-18.4
			c-1.6-3.5-2.4-7.2-2.4-11.1c0-4,2.1-6.8,5.7-7c4.1-0.2,4.4-2.3,4.4-5.4c0-6.8,1.8-13.1,5.6-18.9c9.3-14.3,30.4-16.5,42.6-4.6
			c6.8,6.6,9.6,14.6,9.6,23.8c0,2.1-0.2,4,2.6,5.2c8,3.2,9,6,6.4,14.3c-2.4,7.6-6.1,14.8-5.6,23.2c0.2,3.6,0.5,7.8-4.3,9
			c-4.6,1.2-4.9-3.3-6.9-6.6c-1.2,5-0.9,8.3,3.8,9.9c2.8,0.9,5.1,2.3,6.7,4.9c0.6,1.1,1.9,2.3,3,2.5c8.8,1.5,16.8,6.2,26,6.5
			c11.6,0.3,19.1,6.3,23.5,17c6.3,15.3,8.1,31.9,12.7,47.7c2.6,8.8,4.4,18,5.8,27.2c1.9,12.4,4.3,24.7,1.4,37.2
			c-1.5,6.3-3.3,7.5-9.7,7.6c-12.1,0.1-23.2-3.8-34.1-8.6c-1.3-0.6-2.7-1.9-4.1-0.4c-1.1,1.2-0.2,2.7,0.4,3.7
			c2.4,4.4,5.8,8.1,7.4,12.9c0.4,1.3,2.1,1.6,3.5,1.6c10.1,0.1,20.2,2.4,30.1-1.6c2.9-1.2,6.1-1.5,9.3-2
			c23.7-3.7,38.5,9.7,36.3,32.9c-0.6,6.8-3.2,13.2-6,19.5c-4.8,11-5.9,8.7,5.3,15.8c1.5,1,3.2,0.8,4.8,1.3c4.9,1.5,8.1,5.1,9.1,9.7"
			/>
	</g>
</g>
</svg>
