<?xml version="1.0" encoding="utf-8"?>
<!-- Generator: Adobe Illustrator 21.1.0, SVG Export Plug-In . SVG Version: 6.00 Build 0)  -->
<svg version="1.1" xmlns="http://www.w3.org/2000/svg" xmlns:xlink="http://www.w3.org/1999/xlink" x="0px" y="0px"
	 viewBox="0 0 750 1334" style="enable-background:new 0 0 750 1334;" xml:space="preserve">
<g id="Layer_1">
</g>
<g id="Layer_2">
	<g>
		<path d="M-220.8,1421.9c-18.6-33.8,0-64.9,39.8-70.8c14.2-2.1,23.8-9.1,28.6-22.7c3.7-10.5,3.5-21.1,3.4-31.9
			c-0.6-65.7,43.5-113.8,111.1-124.3c38.4-5.9,76,0.5,113.9,2.5c15.5,0.8,31.1-1.9,33.9-15.8c6.1-29.9,19.1-58.4,18.3-89.9
			c-0.4-18.2-7.4-12.8-17.4-8.7c-40.2,16.4-81.5,27.9-125.8,27.9c-19,0-29.5-8.5-34.7-24.8c-3.1-9.7-3.8-19.8-4.6-29.9
			c-4.4-55.9,12.2-109.1,21.2-163.3C-23.7,814-2.3,760.5,7,704.2c4.3-26.4,12.4-51.5,23.8-75.9c16.8-36.1,44.4-57,86.2-59.5
			c11.1-0.7,22.2-2.3,33.3-3.8c7.4-1,12.9-4.2,10.6-12.6c-3.8-13.9-6.9-28.2-12.3-41.6c-26.2-66.1-43.2-135.5-74.2-199.8
			c-15.7-32.6-19-68.3-31.9-101.4c-8.8-22.4-21-27-43.2-14.2c-32.6,18.7-65.1,37.7-97.5,56.7c-4.8,2.8-10.2,6.1-14.3,1.8
			c-11.3-12.1-27.7-20.4-33.5-36.5c-5.9-16.3-13.8-31.4-21.9-46.6c-10.4-19.3-6.4-37.2,11.9-50c7.9-5.5,16.6-10.5,25.7-13.9
			C-96.5,94.3-66.6,74.5-33.9,60c15.5-6.9,19.8-17.1,13.6-32.3c-3.6-8.8-6.6-17.9-5.2-27.7c7.9,0,15.8,0,23.7,0
			c-0.7,10.2,0.3,20.4,4,30C22.3,82.7,42.6,135.4,61,188.8c23.4,68.2,51.4,134.9,74.2,203.3c16.5,49.4,36.6,97.5,52,147.3
			c1.7,5.4,4.2,12.9,11,11.4c13.2-2.9,29.1-3.4,37.2-15c7.2-10.4,16.1-16,27.5-19.8c18.1-5.9,20.9-18.1,14.5-39
			c-2.4,5-3.4,6.6-4,8.4c-3.6,10.8-8.3,21.2-22.5,19.6c-14.7-1.7-17.2-14-19.5-25.3c-0.9-4.3-1.2-8.8-1-13.2
			c1.2-24.6-4.3-47.7-14.7-70c-6.2-13.4-9.6-27.4-9.5-42.3c0.1-15.2,8.2-25.7,22.5-26.5c16.4-0.9,17.4-8.7,17.3-20.7
			c-0.2-25.9,7.2-50,21.9-71.8c36.6-54.3,119.9-62.8,168.2-17.5c26.8,25.2,37.8,55.5,37.9,90.5c0,7.9-0.9,15.2,10.5,19.6
			c31.5,12.1,35.5,22.8,25.2,54.4c-9.4,28.8-23.9,56.3-22,87.9c0.8,13.6,1.9,29.5-17,34.1c-18.3,4.5-19.3-12.6-27.1-25.1
			c-4.8,18.8-3.4,31.7,15.1,37.5c11,3.5,20,8.8,26.3,18.7c2.6,4,7.4,8.6,11.8,9.3c34.9,5.6,66.4,23.6,102.7,24.5
			c45.6,1.2,75.5,23.9,92.9,64.5c24.9,58.3,31.8,121.1,50.2,181.1c10.2,33.3,17.4,68.4,22.8,103.4c7.3,47,17.2,93.7,5.6,141.3
			c-5.8,23.9-13,28.7-38.3,28.9c-47.9,0.4-91.7-14.3-134.6-32.7c-5.1-2.2-10.7-7.2-16-1.4c-4.2,4.6-0.7,10.1,1.6,14.2
			c9.3,16.6,22.9,30.7,29.2,49.1c1.8,5.1,8.2,5.9,13.6,5.9c39.8,0.3,79.8,9.1,119-6.1c11.4-4.4,24.3-5.6,36.6-7.5
			c93.5-13.9,152.1,36.8,143.4,125.1c-2.6,25.9-12.7,50.2-23.5,74.1c-19,41.8-23.3,33.1,21.1,60.2c6,3.7,12.6,3,18.8,4.8
			c19.3,5.6,32.1,19.2,36,37"/>
	</g>
</g>
</svg>
